<svg width="351" height="150" viewBox="0 0 351 150" fill="none" xmlns="http://www.w3.org/2000/svg">
<path fill-rule="evenodd" clip-rule="evenodd" d="M230.108 38.9308C231.584 38.9308 233.059 38.4218 234.166 37.0224C235.642 35.2412 235.888 33.2056 235.396 31.0427C234.904 28.8799 233.674 27.3531 231.584 26.8442C229.37 26.2081 227.402 26.717 225.803 28.371C224.82 29.3888 224.451 30.661 224.328 32.0605C223.959 35.7501 226.049 38.9308 230.108 38.9308ZM220.023 15.1394H224.205V25.1903C224.574 24.8086 224.943 24.5542 225.312 24.2997C227.525 22.773 229.985 22.3913 232.444 22.9002C236.38 23.6636 238.962 26.4626 239.7 30.5338C240.192 33.2056 239.946 35.7501 238.716 38.0402C237.364 40.8391 235.027 42.3659 232.075 42.7475C229.985 43.002 227.894 42.7475 226.049 41.7297C225.312 41.2208 224.574 40.7119 223.836 40.0758V42.3659H220.023V15.1394Z" fill="white"/>
<path fill-rule="evenodd" clip-rule="evenodd" d="M263.553 26.7178C261.831 26.7178 260.232 27.4812 259.126 29.1351C258.265 30.4074 258.019 31.8069 258.142 33.3336C258.265 35.6237 259.248 37.4048 261.339 38.4227C263.553 39.3132 265.643 39.186 267.488 37.5321C269.087 36.2598 269.579 34.3514 269.456 32.3158C269.333 29.1351 266.996 26.7178 263.553 26.7178ZM269.948 25.7C269.948 24.9367 269.948 24.3005 269.948 23.5372C269.948 23.2827 270.071 23.1555 270.317 23.1555C271.3 23.1555 272.284 23.1555 273.268 23.1555C273.637 23.1555 273.637 23.2827 273.637 23.6644C273.637 27.4812 273.637 31.1708 273.637 34.9875C273.637 37.4048 273.637 39.8221 273.637 42.1122C273.637 42.2395 273.637 42.3667 273.637 42.4939H269.825V40.0766C269.21 40.5855 268.718 41.0944 268.103 41.4761C266.012 42.8756 263.676 43.2573 261.339 42.8756C256.912 42.2394 254.083 38.5499 253.714 34.097C253.468 31.8069 253.837 29.644 254.821 27.6084C256.543 24.3005 259.371 22.7738 263.061 22.7738C264.906 22.7738 266.75 23.2827 268.349 24.4277C268.964 24.6822 269.456 25.1911 269.948 25.7Z" fill="white"/>
<path fill-rule="evenodd" clip-rule="evenodd" d="M181.768 32.951C181.768 32.0604 181.645 31.1698 181.276 30.2793C179.677 26.3352 175.127 26.0808 172.667 27.862C170.823 29.2614 169.962 31.9332 170.454 34.4777C171.437 38.8034 175.619 39.9485 178.57 38.4217C180.784 37.2767 181.645 35.3683 181.768 32.951ZM185.949 42.493H182.137V40.0757C182.014 40.0757 182.014 40.0757 182.014 40.0757C180.661 41.6024 178.939 42.493 176.971 42.7474C174.635 43.1291 172.421 42.7474 170.331 41.4752C167.994 39.9485 166.764 37.6584 166.272 34.8594C165.903 32.6966 166.026 30.5337 166.887 28.4981C168.117 25.3174 170.454 23.409 173.774 22.9001C176.234 22.5184 178.57 22.9001 180.661 24.2996C181.153 24.6813 181.645 25.1902 182.26 25.6991V23.2818H186.072V42.493H185.949Z" fill="white"/>
<path fill-rule="evenodd" clip-rule="evenodd" d="M300.199 15.1394H304.381V31.1699H304.504C305.118 30.4066 305.856 29.6432 306.471 28.7526C307.947 26.9715 309.423 25.1903 310.898 23.4091C311.021 23.2819 311.144 23.1547 311.39 23.1547C312.989 23.1547 314.465 23.1547 316.064 23.1547C316.064 23.1547 316.187 23.1547 316.31 23.1547C313.727 26.2081 311.144 29.2615 308.562 32.315C311.513 35.6229 314.465 38.9308 317.539 42.3659C317.416 42.3659 317.293 42.3659 317.17 42.3659C315.572 42.3659 313.973 42.3659 312.374 42.3659C312.128 42.3659 311.882 42.2386 311.759 42.1114C309.423 39.5669 307.209 36.8951 304.872 34.3506C304.749 34.2234 304.626 34.0962 304.504 33.9689V42.3659H300.199V15.1394Z" fill="white"/>
<path fill-rule="evenodd" clip-rule="evenodd" d="M295.652 25.6988C294.791 26.7166 293.93 27.6072 293.069 28.4978C290.364 25.826 286.182 26.3349 284.215 28.625C282.37 30.9151 282.37 34.8591 284.338 37.1492C286.182 39.312 290.487 39.8209 293.192 36.8947C294.053 37.9125 294.914 38.8031 295.775 39.8209C294.299 41.2204 292.7 42.2382 290.733 42.6199C288.519 43.0016 286.305 42.8744 284.215 41.9838C281.386 40.8387 279.542 38.6759 278.927 35.4952C278.189 32.569 278.435 29.6428 280.034 26.9711C281.509 24.4265 283.723 23.1543 286.551 22.6454C289.872 22.1364 292.946 22.8998 295.406 25.3171C295.529 25.5716 295.529 25.5716 295.652 25.6988Z" fill="white"/>
<path fill-rule="evenodd" clip-rule="evenodd" d="M206.613 42.4939H202.432V23.1555H206.244V25.9545H206.367C207.72 23.7916 209.564 22.6466 212.024 22.6466C213.869 22.6466 215.713 23.2827 216.697 24.3005C216.451 24.9367 216.082 25.4456 215.713 26.0817C215.467 26.7179 215.099 27.2268 214.853 27.7357C214.361 27.4812 213.869 27.2268 213.254 26.9723C210.179 25.9545 207.474 27.7357 206.859 31.0436C206.736 31.6797 206.736 32.443 206.736 33.0792C206.736 35.8782 206.736 38.6771 206.736 41.6033V42.4939H206.613Z" fill="white"/>
<path fill-rule="evenodd" clip-rule="evenodd" d="M244.734 42.4931H248.916V15.1394H244.734V42.4931Z" fill="white"/>
<path fill-rule="evenodd" clip-rule="evenodd" d="M196.281 42.4938H192.1V23.1554C192.223 23.1554 192.346 23.1554 192.469 23.1554C193.575 23.1554 194.805 23.1554 195.912 23.1554C196.158 23.1554 196.281 23.2826 196.281 23.5371C196.281 29.7712 196.281 36.0053 196.281 42.1121C196.281 42.2394 196.281 42.3666 196.281 42.4938Z" fill="white"/>
<path fill-rule="evenodd" clip-rule="evenodd" d="M191.488 17.556C191.488 15.9021 192.595 14.8843 194.194 14.8843C195.793 14.8843 196.899 16.0293 196.899 17.556C196.899 19.0828 195.793 20.2278 194.194 20.2278C192.718 20.355 191.488 19.21 191.488 17.556Z" fill="white"/>
<path fill-rule="evenodd" clip-rule="evenodd" d="M188.162 74.5539C188.039 74.045 188.039 73.2816 187.916 72.5183C187.178 69.5921 185.579 67.6837 182.751 67.0475C179.799 66.2842 177.217 66.9203 175.126 69.3376C173.527 71.3733 173.035 73.6633 173.404 76.2079C174.265 82.0603 179.922 83.9687 183.981 82.0603C186.932 80.6608 188.039 78.1163 188.162 74.5539ZM172.789 86.1315L172.42 88.5488C172.42 88.6761 172.297 88.8033 172.175 88.8033H166.517C166.394 88.8033 166.271 88.6761 166.271 88.5488V49.4903C166.271 49.3631 166.394 49.2358 166.517 49.2358H173.158C173.281 49.2358 173.404 49.3631 173.404 49.4903V63.6124C173.404 63.6124 173.65 63.358 173.773 63.2308C176.602 60.6862 179.922 59.7956 183.489 60.1773C187.178 60.4318 190.13 62.0857 192.466 65.0119C194.065 67.1748 194.926 69.5921 195.295 72.2638C195.664 75.5717 195.418 78.8796 193.942 81.9331C191.851 86.386 188.285 88.8033 183.489 89.185C180.414 89.4394 177.586 88.9305 175.003 87.1493C174.388 86.7677 173.896 86.2588 173.281 85.7498C173.035 85.7498 172.789 85.8771 172.789 86.1315Z" fill="#F56563"/>
<path fill-rule="evenodd" clip-rule="evenodd" d="M238.216 74.9357C238.216 75.3174 238.339 75.8263 238.339 76.3352C239.323 82.8237 245.964 84.2232 249.899 81.5515C252.728 79.5159 253.711 75.5718 252.728 72.1367C251.129 66.666 245.349 65.9026 242.028 67.6838C239.446 69.2105 238.339 71.755 238.216 74.9357ZM253.711 63.4853L254.08 61.068C254.08 60.9408 254.203 60.8136 254.326 60.8136H259.983C260.106 60.8136 260.229 60.9408 260.229 61.068V88.2945C260.229 88.4217 260.106 88.5489 259.983 88.5489H254.326C254.203 88.5489 254.08 88.4217 254.08 88.2945C253.957 87.2767 253.834 86.3861 253.588 85.241C253.465 85.3683 253.343 85.4955 253.22 85.6227C250.76 88.04 247.808 89.0578 244.488 89.1851C240.184 89.1851 236.494 87.6583 233.912 84.096C232.19 81.8059 231.452 79.1342 231.206 76.3352C230.96 73.0273 231.329 69.8466 232.928 66.9204C235.019 62.9764 238.216 60.8136 242.397 60.1774C245.718 59.6685 248.792 60.3047 251.621 62.2131C252.236 62.5947 252.728 63.1036 253.22 63.6125C253.343 63.867 253.588 63.7398 253.711 63.4853Z" fill="#F56563"/>
<path fill-rule="evenodd" clip-rule="evenodd" d="M206.986 72.2648H220.145C220.268 72.2648 220.514 72.1376 220.391 71.8831C220.145 69.9747 219.284 68.448 217.562 67.4302C215.963 66.4124 214.242 66.2852 212.397 66.4124C209.446 66.6668 207.109 68.7025 206.617 71.8831C206.617 72.1376 206.74 72.2648 206.986 72.2648ZM227.032 77.3539H206.863C206.74 77.3539 206.494 77.4811 206.617 77.7355C206.863 79.0078 207.355 80.0256 208.216 80.9162C209.569 82.3157 211.29 82.9518 213.135 83.2063C215.84 83.4607 219.161 82.8246 221.62 80.9162C221.743 80.789 221.866 80.789 221.989 80.9162C222.604 81.5523 223.219 82.1885 223.834 82.6974C224.449 83.3335 225.064 83.8424 225.802 84.4785C225.925 84.6058 225.925 84.8602 225.802 84.9874C225.064 85.6236 224.572 86.1325 223.957 86.5142C219.776 89.4404 215.226 90.0765 210.306 89.1859C206.986 88.5498 204.034 87.0231 201.944 84.2241C200.222 82.0612 199.361 79.5167 199.238 76.7177C198.992 73.5371 199.361 70.3564 200.837 67.4302C202.805 63.6134 206.002 61.4505 209.937 60.56C213.135 59.9238 216.332 60.0511 219.407 61.3233C223.834 62.9773 226.417 66.4124 227.278 71.247C227.646 73.1554 227.646 75.0638 227.401 77.0994C227.278 77.2266 227.155 77.3539 227.032 77.3539Z" fill="#F56563"/>
<path fill-rule="evenodd" clip-rule="evenodd" d="M325.783 101.273C326.397 99.8737 329.718 91.8585 330.948 88.9323C331.071 88.6778 331.071 88.1689 330.948 87.7872C327.996 80.1536 322.339 65.3954 320.863 61.5786C320.74 61.1969 320.986 60.688 321.478 60.688C322.954 60.688 326.029 60.688 327.75 60.688C328.119 60.688 328.488 60.9424 328.611 61.3241C330.456 66.5404 333.899 76.4641 335.006 79.3903C335.129 79.6447 335.498 79.6447 335.621 79.3903C336.974 75.8279 342.385 61.7058 342.631 61.0697C342.754 60.9424 342.877 60.688 343.123 60.688C345.09 60.688 348.78 60.688 350.132 60.688C350.378 60.688 350.501 60.9424 350.501 61.1969C348.657 65.5226 335.375 97.4564 334.145 100.51C333.899 101.019 333.653 101.273 333.161 101.273C331.071 101.273 328.857 101.273 326.766 101.273H325.783V101.273Z" fill="#F56563"/>
<path fill-rule="evenodd" clip-rule="evenodd" d="M267.246 60.8152H273.887C274.01 60.8152 274.133 60.9424 274.133 61.0696C274.133 62.8508 274.133 71.6294 274.133 76.0824C274.133 77.7363 274.379 79.263 275.363 80.5353C276.838 82.5709 278.929 83.0798 281.266 82.5709C284.094 81.9348 285.939 79.6447 286.185 76.5913C286.185 75.9551 286.308 75.1918 286.308 74.5556C286.308 70.6116 286.308 62.8508 286.308 61.1969C286.308 61.0696 286.431 60.9424 286.554 60.9424H293.195C293.318 60.9424 293.441 61.0696 293.441 61.1969V88.4233C293.441 88.5506 293.318 88.6778 293.195 88.6778H287.538C287.415 88.6778 287.292 88.5506 287.292 88.4233C287.169 87.5327 287.046 86.6422 286.8 85.6243C286.677 85.7516 286.554 85.7516 286.554 85.7516C283.602 88.805 279.913 89.6956 275.977 89.0595C271.304 88.2961 267.984 84.861 267.123 79.7719C266.877 78.6269 266.877 77.3546 266.877 76.2096C266.877 71.7567 266.877 62.8508 266.877 61.1969C267 61.0696 267.123 60.8152 267.246 60.8152Z" fill="#F56563"/>
<path fill-rule="evenodd" clip-rule="evenodd" d="M303.277 67.0482H299.096C298.973 67.0482 298.85 66.921 298.85 66.7937V61.323C298.85 61.1958 298.973 61.0686 299.096 61.0686H303.277C303.4 61.0686 303.523 60.9413 303.523 60.8141V54.3255C303.523 54.1983 303.646 54.0711 303.769 54.0711C305.982 53.8166 308.196 53.5622 310.41 53.3077C310.533 53.3077 310.779 53.435 310.779 53.5622V60.5596C310.779 60.6869 310.902 60.8141 311.025 60.8141H317.665C317.788 60.8141 317.911 60.9413 317.911 61.0686V66.6665C317.911 66.7937 317.788 66.921 317.665 66.921H311.025C310.902 66.921 310.779 67.0482 310.779 67.1754C310.779 68.7021 310.779 75.3179 310.779 78.6258C310.779 79.1347 310.779 79.6436 310.902 80.0253C311.394 81.9337 312.992 82.9515 315.083 82.4426C315.821 82.3154 316.436 82.0609 317.174 81.9337C317.297 81.9337 317.542 81.9337 317.542 82.1881C318.157 83.8421 318.649 85.6233 319.264 87.4044C319.264 87.5317 319.264 87.7861 319.141 87.7861C318.772 87.9133 318.28 88.1678 317.911 88.295C315.329 89.1856 312.746 89.44 310.164 88.8039C306.843 88.1678 304.876 86.0049 304.138 82.5698C303.892 81.1703 303.769 79.7708 303.646 78.3713C303.646 75.1907 303.646 68.7021 303.646 67.1754C303.523 67.1754 303.4 67.0482 303.277 67.0482Z" fill="#F56563"/>
<path fill-rule="evenodd" clip-rule="evenodd" d="M251.006 121.756C251.129 126.209 253.712 129.262 257.524 129.771C260.475 130.153 263.673 128.881 265.026 125.7C265.764 124.046 266.01 122.392 265.764 120.484C265.272 115.522 260.844 112.723 256.294 113.995C252.974 115.013 251.006 118.067 251.006 121.756ZM250.76 96.1836C251.006 96.1836 251.129 96.3108 251.129 96.5653V110.433C251.498 110.179 251.867 110.051 252.113 109.797C258.016 104.962 270.314 106.107 272.773 117.939C273.634 122.138 273.265 126.336 271.175 130.026C268.838 134.097 265.395 136.133 260.844 136.387C257.647 136.514 254.695 135.878 252.113 133.715C251.744 133.334 251.252 132.952 250.76 132.57L250.268 135.369C250.268 135.624 250.022 135.878 249.776 135.878H244.611C244.365 135.878 244.119 135.624 244.119 135.369V96.6925C244.119 96.438 244.242 96.3108 244.488 96.3108L250.76 96.1836Z" fill="#F56563"/>
<path fill-rule="evenodd" clip-rule="evenodd" d="M230.104 107.887H236.007C236.376 107.887 236.745 108.269 236.745 108.65V135.368C236.745 135.622 236.622 135.75 236.376 135.75L230.842 135.877C230.719 135.877 230.473 135.75 230.473 135.622L229.981 132.951C229.612 133.205 229.366 133.459 229.12 133.714C225.677 136.64 221.742 137.404 217.56 136.131C213.994 135.113 211.78 132.442 210.673 128.879C210.304 127.48 209.936 125.953 209.936 124.554C209.813 120.101 209.936 111.577 209.936 109.032C209.936 108.65 210.304 108.269 210.673 108.269H216.576C216.945 108.269 217.314 108.523 217.314 109.032C217.314 111.449 217.314 119.21 217.314 122.9C217.314 124.045 217.437 125.19 217.683 126.208C218.298 128.625 220.512 130.152 222.971 130.152C226.292 130.152 228.628 128.116 229.243 124.681C229.366 123.917 229.366 123.027 229.489 122.136C229.489 118.701 229.489 111.322 229.489 108.905C229.489 108.141 229.735 107.887 230.104 107.887Z" fill="#F56563"/>
<path fill-rule="evenodd" clip-rule="evenodd" d="M191.119 111.577C188.413 114.376 189.52 113.231 186.814 116.03C184.601 114.122 182.264 113.358 179.436 113.867C177.714 114.122 176.238 115.012 175.131 116.412C172.672 119.338 172.795 124.427 175.254 127.353C176.853 129.134 178.944 129.898 181.28 129.898C183.371 129.898 184.355 129.389 187.306 127.226L191.488 131.933C189.028 134.478 186.076 136.005 182.633 136.386C179.682 136.641 176.853 136.386 174.024 135.241C169.351 133.206 166.892 129.389 166.154 124.173C165.785 121.883 166.031 119.465 166.646 117.302C167.876 112.722 170.704 109.669 175.008 108.269C179.559 106.743 183.986 106.87 188.29 109.542C189.397 109.923 190.258 110.559 191.119 111.577Z" fill="#F56563"/>
<path fill-rule="evenodd" clip-rule="evenodd" d="M196.154 135.242V96.5653C196.154 96.3108 196.277 96.1836 196.523 96.1836H202.918C203.164 96.1836 203.287 96.3108 203.287 96.5653V135.115C203.287 135.369 203.164 135.497 202.918 135.497H196.523C196.277 135.624 196.154 135.497 196.154 135.242Z" fill="#F56563"/>
<path fill-rule="evenodd" clip-rule="evenodd" d="M72.9349 107.125C55.8408 107.125 41.9441 92.7481 41.9441 75.0636C41.9441 57.3791 55.8408 43.0025 72.9349 43.0025C90.0291 43.0025 103.926 57.3791 103.926 75.0636C103.926 92.7481 90.152 107.125 72.9349 107.125ZM72.9349 0C54.1191 0 36.9019 7.37913 24.1121 19.5929L6.03407 1.01781C3.94342 -1.14504 0.5 0.381678 0.5 3.43511V75.0636C0.5 116.412 32.9666 150 72.9349 150C91.7508 150 108.968 142.621 121.758 130.407L139.713 148.982C141.803 151.145 145.247 149.618 145.247 146.565V74.9364C145.37 33.5878 112.903 0 72.9349 0Z" fill="#F56563"/>
</svg>
