<svg width="36" height="35" viewBox="0 0 36 35" fill="none" xmlns="http://www.w3.org/2000/svg">
<circle cx="17.9999" cy="17.0702" r="17.0702" fill="#CA3660"/>
<path fill-rule="evenodd" clip-rule="evenodd" d="M17.5994 17.1595C19.3391 17.1595 20.7493 15.7493 20.7493 14.0097C20.7493 12.27 19.3391 10.8598 17.5994 10.8598C15.8598 10.8598 14.4496 12.27 14.4496 14.0097C14.4496 15.7493 15.8598 17.1595 17.5994 17.1595ZM28.0991 14.5345C28.0991 15.6942 27.1589 16.6344 25.9992 16.6344C24.8395 16.6344 23.8993 15.6942 23.8993 14.5345C23.8993 13.3747 24.8395 12.4346 25.9992 12.4346C27.1589 12.4346 28.0991 13.3747 28.0991 14.5345ZM10.2498 21.6218C10.2498 20.1833 10.9427 18.9024 12.0032 18.1044C11.5727 17.8419 11.0582 17.6844 10.5122 17.6844H7.88737C6.29144 17.6844 5 18.9759 5 20.5718V21.0968C5 21.5273 5.35698 21.8843 5.78746 21.8843H10.2498V21.6218ZM10.1 16.6344C11.2598 16.6344 12.1999 15.6942 12.1999 14.5345C12.1999 13.3747 11.2598 12.4346 10.1 12.4346C8.94028 12.4346 8.00012 13.3747 8.00012 14.5345C8.00012 15.6942 8.94028 16.6344 10.1 16.6344ZM30.1989 21.0968V20.5718C30.1989 18.9759 28.9074 17.6844 27.3115 17.6844H24.6866C24.1406 17.6844 23.6262 17.8419 23.1957 18.1044C24.2561 18.9024 24.9491 20.1833 24.9491 21.6218V21.8843H29.4114C29.8419 21.8843 30.1989 21.5273 30.1989 21.0968ZM14.712 18.7344H20.4867C22.0795 18.7344 23.3741 20.029 23.3741 21.6218V23.1967C23.3741 23.6314 23.0213 23.9842 22.5866 23.9842H12.6121C12.1774 23.9842 11.8246 23.6314 11.8246 23.1967V21.6218C11.8246 20.029 13.1192 18.7344 14.712 18.7344Z" fill="#F5F5F5"/>
</svg>
