<svg width="36" height="35" viewBox="0 0 36 35" fill="none" xmlns="http://www.w3.org/2000/svg">
<circle cx="17.9999" cy="17.0702" r="17.0702" fill="#CA3660"/>
<path d="M17.8191 6.33548C17.8677 6.1857 18.0796 6.1857 18.1283 6.33548L20.4009 13.3299C20.4227 13.3969 20.4851 13.4422 20.5555 13.4422H27.9099C28.0674 13.4422 28.1329 13.6438 28.0055 13.7363L22.0557 18.0591C21.9987 18.1005 21.9748 18.1739 21.9966 18.2409L24.2692 25.2353C24.3179 25.3851 24.1465 25.5097 24.0191 25.4171L18.0692 21.0943C18.0123 21.0529 17.9351 21.0529 17.8781 21.0943L11.9283 25.4171C11.8009 25.5097 11.6295 25.3851 11.6781 25.2353L13.9508 18.2409C13.9725 18.1739 13.9487 18.1005 13.8917 18.0591L7.94188 13.7363C7.81447 13.6438 7.87995 13.4422 8.03744 13.4422H15.3918C15.4623 13.4422 15.5247 13.3969 15.5464 13.3299L17.8191 6.33548Z" fill="#F5F5F5"/>
</svg>
