<svg width="40" height="40" viewBox="0 0 40 40" fill="none" xmlns="http://www.w3.org/2000/svg">
<g clip-path="url(#clip0_94_646)">
<path d="M38.4398 14.2631L26.7165 12.5622L21.4759 1.95587C21.3328 1.66548 21.0973 1.4304 20.8064 1.2875C20.0768 0.927969 19.1904 1.22758 18.8256 1.95587L13.585 12.5622L1.8618 14.2631C1.53858 14.3092 1.24308 14.4613 1.01683 14.6918C0.743312 14.9724 0.592592 15.35 0.597786 15.7415C0.602982 16.133 0.763666 16.5066 1.04454 16.7799L9.52644 25.0354L7.52255 36.6927C7.47557 36.9639 7.50561 37.2428 7.60932 37.4978C7.71303 37.7527 7.88621 37.9737 8.10926 38.1353C8.33231 38.297 8.59629 38.3932 8.87126 38.4127C9.14623 38.4324 9.42118 38.3746 9.66497 38.2461L20.1507 32.7425L30.6365 38.2461C30.9228 38.3981 31.2553 38.4489 31.5739 38.3935C32.3773 38.2553 32.9175 37.4948 32.779 36.6927L30.7752 25.0354L39.257 16.7799C39.4879 16.554 39.6402 16.2589 39.6864 15.9363C39.811 15.1297 39.2478 14.383 38.4398 14.2631Z" fill="#F7C852"/>
</g>
<defs>
<clipPath id="clip0_94_646">
<rect width="40" height="40" fill="white"/>
</clipPath>
</defs>
</svg>
