<svg width="25" height="36" viewBox="0 0 25 36" fill="none" xmlns="http://www.w3.org/2000/svg">
<g clip-path="url(#clip0_94_651)">
<g clip-path="url(#clip1_94_651)">
<path fill-rule="evenodd" clip-rule="evenodd" d="M24.649 0.166138H0.587891V34.3822C0.587891 35.0244 1.10022 35.2538 1.72636 34.8923L11.4799 31.1627C12.106 30.801 13.1308 30.801 13.7569 31.1626L23.5105 34.8923C24.1366 35.2537 24.649 35.0242 24.649 34.3821V0.166138ZM12.6134 10.4772C10.8536 10.4772 9.25086 11.1859 8.04727 12.3472L6.36469 10.5716C6.17337 10.3697 5.84615 10.5126 5.84615 10.798V17.6153C5.84615 21.5574 8.87592 24.7532 12.6134 24.7532C14.3731 24.7532 15.9759 24.0445 17.1795 22.8832L18.862 24.6582C19.0534 24.86 19.3805 24.7171 19.3805 24.4317V17.6153C19.3805 13.6731 16.3508 10.4772 12.6134 10.4772ZM12.6231 20.673C11.0214 20.673 9.72291 19.3033 9.72291 17.6137C9.72291 15.9242 11.0214 14.5546 12.6231 14.5546C14.2249 14.5546 15.5234 15.9242 15.5234 17.6137C15.5234 19.3033 14.2249 20.673 12.6231 20.673Z" fill="#FAFAFA"/>
</g>
</g>
<defs>
<clipPath id="clip0_94_651">
<rect width="25" height="35.6" fill="white"/>
</clipPath>
<clipPath id="clip1_94_651">
<rect width="25" height="35.6" fill="white"/>
</clipPath>
</defs>
</svg>
